<svg width="24" height="24" viewBox="0 0 24 24" fill="none" xmlns="http://www.w3.org/2000/svg">
<path d="M7.38978 8.33333C8.06078 6.90944 9.87089 5.88889 12 5.88889C14.7011 5.88889 16.8889 7.53033 16.8889 9.55556C16.8889 11.2667 15.3269 12.7028 13.2149 13.1086C12.5524 13.2357 12 13.7686 12 14.4444M12 18.1111H12.0122M23 12C23 13.4445 22.7155 14.8749 22.1627 16.2095C21.6099 17.5441 20.7996 18.7567 19.7782 19.7782C18.7567 20.7996 17.5441 21.6099 16.2095 22.1627C14.8749 22.7155 13.4445 23 12 23C10.5555 23 9.12506 22.7155 7.79048 22.1627C6.4559 21.6099 5.24327 20.7996 4.22183 19.7782C3.20038 18.7567 2.39013 17.5441 1.83733 16.2095C1.28452 14.8749 1 13.4445 1 12C1 9.08262 2.15893 6.28473 4.22183 4.22183C6.28473 2.15893 9.08262 1 12 1C14.9174 1 17.7153 2.15893 19.7782 4.22183C21.8411 6.28473 23 9.08262 23 12Z" stroke="#F9F9F9" stroke-width="2" stroke-linecap="round" stroke-linejoin="round"/>
</svg>
