<svg width="24" height="26" viewBox="0 0 24 26" fill="none" xmlns="http://www.w3.org/2000/svg">
<path d="M15.6667 19.6667H22.3333L20.46 17.7933C20.2084 17.5417 20.0089 17.243 19.8728 16.9142C19.7366 16.5855 19.6666 16.2331 19.6667 15.8773V11.6667C19.6669 10.0119 19.1541 8.39779 18.199 7.04652C17.2438 5.69525 15.8933 4.67329 14.3333 4.12133V3.66667C14.3333 2.95942 14.0524 2.28115 13.5523 1.78105C13.0522 1.28095 12.3739 1 11.6667 1C10.9594 1 10.2811 1.28095 9.78105 1.78105C9.28095 2.28115 9 2.95942 9 3.66667V4.12133C5.89333 5.22 3.66667 8.184 3.66667 11.6667V15.8787C3.66667 16.596 3.38133 17.2853 2.87333 17.7933L1 19.6667H7.66667M15.6667 19.6667H7.66667M15.6667 19.6667V21C15.6667 22.0609 15.2452 23.0783 14.4951 23.8284C13.7449 24.5786 12.7275 25 11.6667 25C10.6058 25 9.58838 24.5786 8.83824 23.8284C8.08809 23.0783 7.66667 22.0609 7.66667 21V19.6667" stroke="#F9F9F9" stroke-width="2" stroke-linecap="round" stroke-linejoin="round"/>
</svg>
